<svg width="1728" height="502" viewBox="0 0 1728 502" fill="none" xmlns="http://www.w3.org/2000/svg">
<path d="M-109 0H1775V502H-109V0Z" fill="url(#paint0_linear_164_11)"/>
<g opacity="0.08">
<path d="M1543.17 0.000273211L1549.97 0.000273508C1461.4 25.9765 1262.31 45.1214 1039.42 49.0374C979.065 50.0817 940.131 55.8687 926.7 65.7893C916.839 73.0992 920.92 82.2801 938.771 92.3747C956.623 102.426 986.205 112.433 1024.46 121.31C1039.08 124.704 1055.74 129.011 1073.42 133.623C1155.54 154.987 1268.09 184.183 1367.89 170.782C1422.46 163.429 1432.66 149.549 1443.38 134.885C1454.26 120.004 1465.48 104.601 1527.53 97.2045C1546.23 94.9854 1567.83 93.419 1592.31 92.5052L1592.31 95.1594C1569.36 96.0296 1549.29 97.509 1531.78 99.5976C1474.49 106.429 1464.12 120.526 1453.24 135.407C1442.53 150.071 1431.47 165.213 1372.48 173.132C1294.61 183.574 1211.99 170.39 1140.24 153.943C1083.28 142.326 1031.09 127.793 992.666 119.308C860.394 90.1556 819.591 46.1222 995.216 40.6398C1168.12 35.2009 1325.73 20.0589 1425.18 0.0437664L1543.17 0.000273211Z" fill="#53BDB1"/>
<path d="M1237.4 473.548C1217.48 474.288 1196.71 475.854 1174.75 477.507C1137.12 480.335 1098.64 483.206 1061.35 482.249C1028.15 483.076 995.465 482.423 965.5 478.203C929.746 473.157 917.998 460.932 932.811 451.927C979.291 423.693 1145.63 422.214 1168.62 390.021L1168.62 389.978C1182.92 376.535 1153.29 361.178 1120.77 351.129C1065.44 334.119 964.649 320.11 873.561 317.239C869.475 317.283 865.219 317.283 861.132 317.326C824.697 317.587 784.346 317.848 744.336 317.152C676.233 317.065 605.407 315.369 551.265 306.798C465.796 293.312 489.632 258.683 569.993 264.817C573.739 264.078 577.825 263.425 582.081 262.99C598.767 261.206 627.199 260.815 666.699 269.298C709.604 278.477 749.614 282.61 792.519 282.393C830.316 282.175 871.178 278.564 924.979 270.734C972.651 263.773 1018.45 253.506 1066.8 242.587C1141.55 225.794 1219.01 208.393 1306.52 203.477C1360.16 200.475 1421.62 200.91 1489.38 204.825C1522.58 206.739 1557.48 209.48 1593.58 213.048L1593.58 215.832C1556.63 212.134 1521.05 209.306 1487.17 207.349C1420.94 203.52 1360.84 203.085 1308.74 206C1223.78 210.785 1147.33 227.926 1073.44 244.544C1024.58 255.507 978.439 265.905 929.916 272.996C874.583 281.087 832.189 284.785 792.689 285.003C747.06 285.264 705.007 280.913 660.059 271.299C631.796 265.252 606.258 263.251 585.997 265.426C567.95 267.384 555.862 272.561 553.819 279.347C551.435 287.047 563.523 298.315 604.896 304.884C675.552 316.065 778.387 315.325 860.962 314.759C869.475 314.716 877.818 314.629 885.99 314.585C984.739 314.02 1109.54 329.029 1175.94 349.476C1209.31 359.742 1239.61 375.621 1224.8 389.499L1224.8 389.543C1209.48 403.42 1153.12 412.774 1098.47 421.779C1059.14 428.304 1022.03 434.439 1000.57 442.008C979.972 449.23 971.799 456.756 977.418 463.151C982.185 468.546 996.146 472.939 1019.13 476.202C1066.63 482.945 1120.26 478.899 1172.02 475.028C1194.33 473.331 1215.44 471.765 1236.04 470.982C1295.29 468.763 1365.09 470.46 1432.51 475.724C1496.19 480.727 1552.55 488.688 1593.41 498.389L1593.41 502C1553.23 491.82 1495.34 483.424 1429.45 478.247C1364.41 473.113 1294.44 471.417 1237.4 473.548Z" fill="#53BDB1"/>
<path d="M807.05 38.8243C713.964 51.2288 625.814 62.937 595.693 76.9085C577.144 85.5264 573.57 92.9256 584.631 99.5414C614.922 117.343 749.19 126.004 867.632 133.665C956.974 139.41 1034.06 144.416 1064.86 152.511C1101.79 162.217 1116.26 172.576 1107.92 183.283C1084.26 213.925 883.458 238.473 822.365 245.263C725.536 256.057 656.275 254.272 574.761 238.951C564.551 237.036 553.83 234.773 542.428 232.379C492.397 221.89 429.943 208.876 365.446 214.882C314.904 219.583 262.661 216.667 214.501 206.438C174.34 197.864 138.774 184.415 117.161 169.529C109.333 164.132 102.526 158.518 95.8895 153.077C71.3843 132.881 48.0704 113.817 -25.7854 101.674C-49.6099 97.7568 -78.029 93.8831 -109.001 90.4447L-109.001 87.6156C-75.8167 91.2281 -45.5256 95.3194 -20.1696 99.4978C56.7494 112.164 81.5949 132.577 105.76 152.337C112.397 157.734 119.033 163.305 126.861 168.659C147.793 183.153 182.168 196.21 221.138 204.48C252.62 211.183 302.652 218.016 362.043 212.488C431.985 205.96 496.821 219.496 548.895 230.421C560.126 232.771 570.847 234.991 580.887 236.906C658.827 251.574 725.366 253.271 818.281 242.912C852.997 239.038 920.386 230.856 981.989 219.539C1049.72 207.048 1088.69 194.687 1097.88 182.848C1105.37 173.011 1091.92 163.436 1057.55 154.383C1028.79 146.809 949.146 141.673 865.079 136.233C744.255 128.442 607.435 119.606 575.272 100.63C562.849 93.3174 566.763 84.9606 586.673 75.6898C618.326 61.0219 707.668 49.1396 802.285 36.561C886.691 25.3316 973.14 13.7975 1020.11 0.000112463L1033.38 0.000113043C986.584 14.9291 895.881 27.029 807.05 38.8243Z" fill="#53BDB1"/>
<path d="M613.843 23.5389C558.527 30.544 506.276 37.201 481.256 45.99C442.11 59.7391 426.792 75.4897 438.195 90.3701C449.769 105.555 488.405 119.043 546.784 128.267C570.271 131.966 616.055 135.533 664.733 139.319C762.088 146.89 872.378 155.461 887.015 170.341C891.781 175.214 889.568 179.609 880.377 183.394C855.868 193.532 786.597 197.405 731.111 200.494C707.113 201.843 686.348 202.974 673.583 204.41C604.482 212.111 554.953 210.806 496.744 199.885C488.064 198.231 479.554 196.404 470.363 194.446C446.705 189.355 422.367 184.047 394.284 182.524C380.497 181.784 367.392 182.437 353.435 183.133C336.756 183.96 319.395 184.83 301.694 183.046C231.231 176.085 205.36 150.979 184.596 130.791C178.809 125.178 173.363 119.87 167.576 115.606C129.791 87.8465 78.2204 49.8624 -32.0698 31.7187C-53.5151 28.1944 -80.0664 24.7571 -109.001 21.8855L-109.001 19.1009C-77.8538 22.103 -49.26 25.7579 -26.4531 29.5432C86.7305 48.1655 139.152 86.6717 177.277 114.779C183.234 119.174 188.681 124.525 194.638 130.182C214.892 149.805 239.911 174.214 305.609 180.697C320.757 182.176 335.734 181.436 351.733 180.653C366.03 179.957 381.008 179.217 396.666 180.044C427.303 181.697 452.662 187.18 477.171 192.488C486.022 194.402 494.532 196.23 502.872 197.796C557.676 208.108 604.311 209.283 669.669 202.017C683.285 200.494 704.56 199.319 729.069 197.927C782.852 194.924 849.571 191.183 871.867 182.002C879.696 178.782 881.399 175.214 877.314 170.951C864.038 157.462 752.046 148.76 661.839 141.799C610.439 137.796 566.016 134.359 541.507 130.486C480.746 120.827 440.408 106.773 428.324 90.8487C416.41 75.2286 432.238 58.7819 473.086 44.4236C499.638 35.1125 552.911 28.325 609.417 21.1893C659.286 14.8804 710.176 8.39745 742.855 3.93682e-05L757.152 3.99932e-05C723.622 9.61573 668.137 16.6643 613.843 23.5389Z" fill="#53BDB1"/>
<path d="M434.393 18.8904L430.143 20.1962C377.278 36.7797 317.444 55.5395 345.151 78.0861C351.95 83.6575 363.339 89.0982 374.218 94.3214C398.186 105.856 423.004 117.782 402.266 132.189C389.687 140.938 371.839 143.245 358.92 143.68C338.182 144.333 315.744 140.59 296.026 133.147C266.108 121.873 252.68 108.38 239.761 95.3225C233.471 89.0112 227.012 82.4822 218.853 76.4321C185.706 52.0574 142.02 19.8045 57.1978 3.60563e-05L71.9864 3.67027e-05C153.239 20.3268 195.905 51.7092 228.372 75.5616C236.701 81.7423 243.331 88.3148 249.62 94.6696C262.369 107.51 275.628 120.742 304.525 131.667C321.863 138.152 341.241 141.591 357.73 141.069C372.009 140.633 384.078 137.238 392.747 131.275C411.955 117.956 389.177 107.075 365.209 95.5401C354.16 90.1864 342.601 84.6585 335.462 78.8695L335.462 78.826C306.225 54.9301 367.929 35.6045 422.324 18.4987L426.574 17.1929C427.933 16.7576 429.973 16.1483 432.353 15.4083C450.541 9.79346 466.35 4.65736 479.609 5.45205e-05L492.357 5.50777e-05C475.699 5.96315 457.001 11.9262 440.172 17.1058C437.622 17.8458 435.753 18.4552 434.393 18.8904Z" fill="#53BDB1"/>
<path d="M884.933 428.204C837.947 433.027 795.304 434.69 764.869 432.934C721.544 430.433 697.696 421.906 674.771 413.636C666.436 410.687 657.765 407.581 648.43 404.869C623.997 397.784 594.704 394.1 563.64 390.182C531.277 386.097 497.847 381.909 470.719 373.565L470.266 373.376C459.64 368.895 452.457 364.726 448.7 360.992C422.646 345.698 421.518 328.069 480.707 322.2C555.302 314.823 638.911 341.048 703.249 347.828C790.569 357.058 876.84 344.255 966.386 350.767C1030.45 355.419 1071.98 373.456 1067.58 380.834C1067.09 381.722 1066.22 382.638 1065.24 383.521C1065.16 384.074 1064.95 384.596 1064.63 385.147C1060.21 392.71 1040.28 400.855 1006.91 408.741C974.284 416.511 929.841 423.577 884.933 428.204ZM568.339 387.827C598.931 391.678 630.467 395.663 656.285 403.131C665.966 405.939 674.753 409.077 683.193 412.119C706.128 420.328 727.927 428.095 767.192 430.371C825.195 433.729 931.985 422.952 1000.1 406.855C1031.72 399.382 1050.48 391.749 1054.57 384.799C1058.97 377.359 1032.89 371.551 977.525 367.511C939.182 364.721 899.034 363.483 860.078 362.319C808.186 360.716 754.61 359.096 704.134 353.781C685.77 351.84 667.876 349.195 650.693 346.619C606.323 339.979 564.3 333.733 512.938 338.819C496.917 340.412 483.975 342.345 474.851 344.501C448.605 350.704 449.861 359.71 478.785 372.014C504.672 379.822 537.035 383.907 568.339 387.827Z" fill="#53BDB1"/>
<path d="M1315.18 117.876C1310.76 118.571 1305.82 119.092 1300.54 119.483C1267.19 121.914 1227.88 119.396 1192.82 112.623C1151.98 104.72 1125.43 92.7371 1125.43 82.0996C1125.43 80.9707 1125.77 79.7984 1126.28 78.7129C1128.84 74.0238 1138.37 70.2898 1154.7 67.5544C1187.38 62.1272 1243.02 61.9969 1278.93 64.602C1299.69 66.1216 1318.58 70.5937 1332.03 77.1933C1344.28 83.185 1351.26 90.5662 1351.26 97.4697C1351.09 106.978 1337.98 114.446 1315.18 117.876ZM1276.21 67.1203C1247.45 64.9928 1192.48 64.4283 1160.32 69.7688C1146.53 72.0699 1138.54 75.1961 1136.49 79.1037C1135.98 80.1023 1135.64 81.1009 1135.64 82.143C1135.64 91.9989 1160.49 103.201 1198.95 110.582C1231.45 116.834 1267.53 119.179 1297.82 117.008C1302.25 116.704 1306.33 116.226 1310.07 115.662C1329.82 112.666 1341.05 106.067 1341.05 97.4697C1340.88 85.1389 1316.2 70.0293 1276.21 67.1203Z" fill="#53BDB1"/>
<path d="M1330.26 263.684C1335.24 263.305 1340.54 263.127 1346.03 263.098C1380.71 262.951 1416.13 267.992 1443.11 276.871C1474.55 287.226 1488.03 300.586 1477.24 310.886C1476.1 311.979 1474.58 313.091 1472.98 314.109C1465.76 318.48 1452.77 321.465 1434.22 323.032C1397.15 326.124 1343.27 322.567 1311.24 317.667C1292.72 314.822 1279.02 309.241 1272.73 301.961C1266.97 295.348 1267.72 287.74 1274.72 281.055C1284.53 271.86 1304.76 265.496 1330.26 263.684ZM1316.42 315.409C1342.04 319.373 1394.56 323.558 1431.04 320.516C1446.69 319.2 1457.58 316.703 1463.52 313.054C1465.02 312.121 1466.37 311.177 1467.42 310.168C1477.42 300.625 1464.79 288.134 1435.13 278.441C1410.07 270.236 1377.61 265.577 1346.15 265.674C1341.57 265.676 1337.14 265.868 1332.95 266.166C1310.84 267.761 1293.3 273.407 1284.58 281.731C1272.24 293.682 1280.74 309.945 1316.42 315.409Z" fill="#53BDB1"/>
<path d="M1065.14 302.146C1057.92 301.079 1049.64 298.913 1051.37 294.733C1052.97 290.822 1063.92 285.048 1074.76 282.378C1090.37 278.523 1121.55 279.432 1142.5 282.526C1157.43 284.731 1166.18 287.828 1166.17 291.031C1166.21 291.653 1165.87 292.301 1165.22 292.944C1161.94 296.319 1148.93 299.449 1129.76 301.545C1110.01 303.679 1082.36 304.689 1065.14 302.146ZM1157.25 292.423C1157.67 291.952 1157.9 291.493 1157.94 291.048C1157.83 288.608 1150.73 286.205 1138.33 284.374C1115.21 280.96 1090.42 281.487 1080.45 283.915C1071.13 286.194 1061.08 291.568 1059.66 294.972C1058.65 297.41 1061.85 299.196 1069.31 300.298C1081.96 302.165 1105.45 301.857 1126.67 299.57C1143.1 297.767 1154.56 295.107 1157.25 292.423Z" fill="#53BDB1"/>
<path d="M1637.14 383.751C1643.08 372.184 1708.11 360.096 1735.78 355.443C1748.85 353.269 1761.93 351.268 1775 349.485L1775 352.442C1763.79 354.008 1752.42 355.747 1741.38 357.617C1686.21 366.923 1650.89 376.794 1647.16 384.099C1644.1 389.969 1662.27 394.144 1701.15 396.492C1722.54 397.796 1748.68 397.144 1775 395.753L1775 398.405C1748.17 399.797 1721.35 400.362 1698.77 399.014C1668.04 397.188 1632.39 393.013 1637.14 383.751Z" fill="#53BDB1"/>
<path d="M1243.45 415.001C1242.77 407.86 1254.51 400.763 1279.2 393.187C1318.02 381.344 1374.55 374.508 1429.03 367.89C1432.44 367.498 1435.67 367.106 1438.91 366.67C1557.92 352.215 1654.63 338.543 1739.42 318.775C1743.16 317.904 1747.42 316.946 1752.01 315.858C1758.83 314.29 1766.66 312.505 1775 310.546L1775 314.072C1769.21 315.422 1763.76 316.641 1758.83 317.773C1754.23 318.818 1749.97 319.82 1746.23 320.647C1660.41 340.633 1563.03 354.392 1443.16 368.978C1439.93 369.37 1436.52 369.762 1433.12 370.197C1379.49 376.685 1324.15 383.39 1286.69 394.798C1263.71 401.852 1252.64 408.427 1253.32 414.871C1254 423.318 1262.69 430.458 1278.35 435.509C1295.38 440.995 1319.38 443.739 1349.86 443.564C1403.83 443.303 1452.7 437.164 1500.03 431.199C1547.19 425.277 1595.72 419.181 1650.71 418.528C1697.19 418.006 1740.1 419.573 1775 422.969L1775 425.756C1740.95 422.273 1698.04 420.618 1651.22 421.141C1598.44 421.75 1550.77 427.759 1504.63 433.55C1456.44 439.602 1406.56 445.872 1350.2 446.177C1286.18 446.569 1245.15 434.595 1243.45 415.001Z" fill="#53BDB1"/>
</g>
<defs>
<linearGradient id="paint0_linear_164_11" x1="-109.263" y1="17.8268" x2="1436.18" y2="564.161" gradientUnits="userSpaceOnUse">
<stop offset="0.4375" stop-color="#2C1972"/>
<stop offset="0.761822" stop-color="#2C1970"/>
<stop offset="0.885417" stop-color="#0F0925"/>
<stop offset="1"/>
</linearGradient>
</defs>
</svg>
