<svg width="376" height="828" viewBox="0 0 376 828" fill="none" xmlns="http://www.w3.org/2000/svg">
<path d="M251.121 450.234C243.383 447.313 234.712 450.707 230.094 457.949C229.808 447.189 223.775 437.449 213.817 433.691C206.079 430.77 197.658 432.157 190.896 436.633C189.997 426.729 184.057 417.894 174.734 414.375C166.108 411.119 156.718 413.154 149.604 418.947C148.162 414.128 144.696 410.066 139.876 408.247C133.85 405.973 127.174 407.728 122.491 412.264C119.488 399.103 110.784 387.992 98.0356 383.181C85.9217 378.608 96.9897 283.914 86.3984 290.858C85.7659 282.359 56.5479 371.58 48.6199 368.587C40.4383 365.499 31.4114 368.107 25.2648 374.409C23.7441 369.415 20.214 365.33 15.2036 363.438C8.54409 360.925 1.20819 363.083 -3.67466 368.341C-2.68905 356.323 -8.94111 345.051 -19.85 340.934C-29.3635 337.343 -39.9461 340.232 -47.1579 347.437C-47.8793 343.397 -50.4268 339.972 -54.2322 338.536C-57.4669 337.315 -60.9828 337.799 -63.9459 339.507C-65.0054 326.572 -72.5583 315.098 -84.6723 310.526C-101.733 304.087 -121.257 313.963 -128.295 332.61L-275.552 668.073L111.713 814.238L260.694 474.208C264.404 464.377 260.127 453.633 251.121 450.234Z" fill="#2C1970"/>
<path opacity="0.5" d="M118.356 215.069C107.901 210.927 96.1376 215.988 92.0113 226.403C81.2736 253.506 93.1289 278.742 78.5931 315.431C93.1289 278.742 119.051 268.473 129.789 241.37C133.915 230.955 128.81 219.211 118.356 215.069Z" fill="#2C1970"/>
<path d="M118.356 215.069C111.347 212.292 103.394 215.714 100.627 222.696C93.4532 240.804 101.429 257.794 91.7225 282.293C101.429 257.794 118.876 250.876 126.05 232.769C128.698 225.739 125.365 217.846 118.356 215.069Z" fill="#2C1970"/>
<path d="M129.145 224.957L103.175 214.531C101.987 214.061 101.293 212.69 101.809 211.389L103.731 206.536L134.216 218.751L132.293 223.603C131.777 224.905 130.333 225.428 129.145 224.957Z" fill="url(#paint0_linear_9_151)"/>
<path d="M167.961 182.142L175.381 212.33C176.275 215.971 175.581 219.803 173.437 222.788L152.77 251.708C152.11 252.679 150.663 252.516 150.113 251.477L133.833 218.326L167.961 182.142Z" fill="url(#paint1_linear_9_151)"/>
<path d="M104.617 156.771L78.3449 173.474C75.2 175.515 73.0805 178.783 72.5992 182.426L67.6139 217.559C67.4295 218.718 68.5956 219.591 69.7085 219.21L104.3 206.488L104.617 156.771Z" fill="url(#paint2_linear_9_151)"/>
<path d="M172.751 78.4667C134.718 90.5103 89.3739 158.126 98.6132 202.455C98.904 203.802 99.6919 204.936 100.88 205.407L136.782 219.904C137.97 220.375 139.273 220.207 140.455 219.306C177.928 193.758 192.003 113.48 172.751 78.4667Z" fill="url(#paint3_linear_9_151)"/>
<path d="M172.751 78.4668C158.968 82.7279 144.294 94.4411 131.58 109.533C122.501 105.388 181.025 129.396 181.025 129.396C182.262 109.621 179.711 91.0829 172.751 78.4668Z" fill="url(#paint4_linear_9_151)"/>
<path d="M137.602 166.142C146.788 169.782 157.173 165.313 160.798 156.163C164.424 147.012 159.917 136.643 150.731 133.004C141.546 129.365 131.161 133.833 127.535 142.984C123.91 152.135 128.417 162.503 137.602 166.142Z" fill="url(#paint5_linear_9_151)"/>
<path d="M158.222 152.951C156.384 160.712 148.722 165.482 140.888 163.747C133.1 161.894 128.298 154.241 130.017 146.432C131.902 138.552 139.683 133.83 147.518 135.565C155.305 137.418 160.06 145.19 158.222 152.951Z" fill="url(#paint6_linear_9_151)"/>
<path d="M158.222 152.951C158.966 149.686 158.5 146.352 157.278 143.54C157.137 143.895 156.996 144.25 156.975 144.652C156.556 146.403 156.256 148.201 155.124 149.67C154.086 150.902 152.382 151.733 150.769 151.642C148.468 151.551 146.208 149.971 143.86 150C140.943 150.076 138.774 152.777 135.81 152.972C134.388 153.093 133.081 152.576 131.987 151.868C131.202 151.42 130.346 150.807 129.867 149.933C130.086 156.318 134.548 162.057 141.1 163.558C148.722 165.482 156.55 160.641 158.222 152.951Z" fill="url(#paint7_linear_9_151)"/>
<g opacity="0.4">
<path opacity="0.4" d="M149.05 138.636C148.812 138.542 148.456 138.401 148.218 138.307C147.862 138.166 147.577 138.19 147.365 138.38C147.033 138.522 146.939 138.759 146.799 139.114C146.564 139.706 146.852 140.367 147.446 140.603L147.565 140.65C147.802 140.744 148.04 140.838 148.277 140.932C148.634 141.073 148.918 141.049 149.25 140.907C149.581 140.764 149.794 140.574 149.934 140.219C149.931 139.533 149.644 138.872 149.05 138.636Z" fill="white"/>
<path opacity="0.4" d="M144.92 137.959C144.73 137.746 144.373 137.605 144.089 137.629C140.769 137.683 137.621 139.038 135.307 141.407C134.835 141.905 134.957 142.638 135.339 143.063C135.457 143.11 135.529 143.275 135.648 143.322C136.123 143.511 136.573 143.415 136.999 143.036C138.887 141.045 141.372 139.976 144.004 139.924C144.289 139.899 144.62 139.757 144.833 139.567C145.045 139.378 145.186 139.023 145.161 138.739C145.255 138.502 145.23 138.218 144.92 137.959Z" fill="white"/>
</g>
<path d="M101.527 196.489C101.327 199.422 101.199 202.52 101.117 205.501L116.918 211.761C116.868 211.193 116.699 210.578 116.602 210.129C116.358 208.663 116.233 207.244 116.108 205.826C115.739 202.941 115.654 200.032 115.498 196.957C115.376 191.021 115.657 185.108 116.388 179.099C117.804 167.199 120.833 155.391 125.334 144.029C127.704 138.395 130.192 132.808 133.275 127.457L134.356 125.421L135.557 123.432L137.957 119.453L140.596 115.569L141.915 113.627L143.353 111.732C150.612 101.737 159.202 92.5428 168.437 84.1517C158.249 91.4803 148.73 99.8957 140.211 109.255L138.582 110.938L137.026 112.785L133.912 116.481L131.036 120.271L129.598 122.166L128.185 124.345C124.462 129.58 121.214 135.002 118.11 140.756C111.995 152.026 107.522 164.358 104.521 177.136C103.008 183.383 102.089 189.865 101.527 196.489Z" fill="white"/>
<path d="M106.674 243.167C104.06 242.131 102.885 239.201 103.751 236.668L115.983 204.407C117.411 200.454 119.362 196.571 121.741 192.995L131.113 178.36L133.845 179.442L130.532 196.478C129.697 200.666 128.506 204.713 126.793 208.69L113.373 240.481C112.223 243.037 109.288 244.202 106.674 243.167Z" fill="url(#paint8_linear_9_151)"/>
<defs>
<linearGradient id="paint0_linear_9_151" x1="116.139" y1="219.807" x2="118.979" y2="212.638" gradientUnits="userSpaceOnUse">
<stop stop-color="white"/>
<stop offset="0.129" stop-color="#EFF6FF"/>
<stop offset="0.5153" stop-color="#C6DFFF"/>
<stop offset="0.8188" stop-color="#ACD0FF"/>
<stop offset="1" stop-color="#A2CBFF"/>
</linearGradient>
<linearGradient id="paint1_linear_9_151" x1="137.802" y1="208.598" x2="173.808" y2="222.862" gradientUnits="userSpaceOnUse">
<stop stop-color="#411F86"/>
<stop offset="0.4985" stop-color="#6829AE"/>
<stop offset="1" stop-color="#3A1D7F"/>
</linearGradient>
<linearGradient id="paint2_linear_9_151" x1="72.1787" y1="182.34" x2="108.099" y2="196.573" gradientUnits="userSpaceOnUse">
<stop stop-color="#2C1970"/>
<stop offset="0.5015" stop-color="#6929AF"/>
<stop offset="1" stop-color="#2C1970"/>
</linearGradient>
<linearGradient id="paint3_linear_9_151" x1="118.805" y1="101.424" x2="165.048" y2="208.905" gradientUnits="userSpaceOnUse">
<stop stop-color="white"/>
<stop offset="0.2088" stop-color="#FBFDFF"/>
<stop offset="0.416" stop-color="#EFF6FF"/>
<stop offset="0.6226" stop-color="#DBEBFF"/>
<stop offset="0.8275" stop-color="#BFDBFF"/>
<stop offset="1" stop-color="#A2CBFF"/>
</linearGradient>
<linearGradient id="paint4_linear_9_151" x1="149.425" y1="88.2516" x2="169.294" y2="134.434" gradientUnits="userSpaceOnUse">
<stop stop-color="#2C1970"/>
<stop offset="0.557292" stop-color="#2C1970"/>
<stop offset="1" stop-color="white"/>
</linearGradient>
<linearGradient id="paint5_linear_9_151" x1="137.176" y1="133.247" x2="151.096" y2="166.063" gradientUnits="userSpaceOnUse">
<stop stop-color="#F1A4FA"/>
<stop offset="0.0833177" stop-color="#080310"/>
<stop offset="0.4305" stop-color="#6E29B1"/>
<stop offset="0.7462" stop-color="#6E29B1"/>
<stop offset="1" stop-color="#6E29B1"/>
</linearGradient>
<linearGradient id="paint6_linear_9_151" x1="138.443" y1="136.389" x2="149.853" y2="162.912" gradientUnits="userSpaceOnUse">
<stop stop-color="#2559CD"/>
<stop offset="0.3525" stop-color="#2255CC"/>
<stop offset="0.6915" stop-color="#1B4AC7"/>
<stop offset="1" stop-color="#0F38C1"/>
</linearGradient>
<linearGradient id="paint7_linear_9_151" x1="142.074" y1="144.741" x2="149.885" y2="162.898" gradientUnits="userSpaceOnUse">
<stop stop-color="#0F38C1"/>
<stop offset="0.3481" stop-color="#143FC3"/>
<stop offset="0.8476" stop-color="#2052CA"/>
<stop offset="1" stop-color="#2559CD"/>
</linearGradient>
<linearGradient id="paint8_linear_9_151" x1="109.251" y1="187.854" x2="129.546" y2="235.025" gradientUnits="userSpaceOnUse">
<stop stop-color="#FDD661"/>
<stop offset="0.0001" stop-color="#2C1970"/>
<stop offset="0.5015" stop-color="#6929AF"/>
<stop offset="1" stop-color="#6829AF"/>
</linearGradient>
</defs>
</svg>
