<svg width="57" height="46" viewBox="0 0 57 46" fill="none" xmlns="http://www.w3.org/2000/svg">
<g clip-path="url(#clip0_128_881)">
<path d="M21.3376 9.04883H36.4863V36.7699H21.3376V9.04883Z" fill="#BDBDBD"/>
<path d="M22.2993 22.9111C22.2993 17.2788 24.8961 12.283 28.8876 9.05045C25.9542 6.69959 22.2513 5.2793 18.2117 5.2793C8.64123 5.2793 0.898682 13.1645 0.898682 22.9111C0.898682 32.6574 8.64123 40.5429 18.2115 40.5429C22.2511 40.5429 25.954 39.1226 28.8876 36.7715C24.8961 33.588 22.2993 28.5434 22.2993 22.9111Z" fill="#828282"/>
<path d="M56.9247 22.9111C56.9247 32.6574 49.1821 40.5429 39.6119 40.5429C35.5723 40.5429 31.8693 39.1226 28.9358 36.7715C32.9754 33.5392 35.5243 28.5434 35.5243 22.9111C35.5243 17.2788 32.9272 12.283 28.9358 9.05045C31.8691 6.69959 35.5723 5.2793 39.6119 5.2793C49.1821 5.2793 56.9249 13.2136 56.9249 22.9111H56.9247Z" fill="#E0E0E0"/>
</g>
<defs>
<clipPath id="clip0_128_881">
<rect width="56.0816" height="44.398" fill="white" transform="translate(0.898682 0.605469)"/>
</clipPath>
</defs>
</svg>
