<svg width="57" height="57" viewBox="0 0 57 57" fill="none" xmlns="http://www.w3.org/2000/svg">
<g clip-path="url(#clip0_128_887)">
<path d="M41.4626 20.2228C40.1593 19.7062 38.7816 19.447 37.3945 19.4573C32.9086 19.4573 29.7405 21.9152 29.7181 25.4435C29.69 28.0356 31.9694 29.4964 33.6937 30.3624C35.4628 31.2529 36.0544 31.814 36.0487 32.6099C36.0375 33.8206 34.6357 34.3695 33.332 34.3695C31.5405 34.3695 30.562 34.0981 29.0564 33.418L28.4985 33.1344L27.8621 37.1964C28.9527 37.6904 30.918 38.1143 32.9479 38.1509C37.7169 38.1509 40.8346 35.7082 40.871 31.9543C40.9103 29.8837 39.6767 28.3192 37.0805 27.0262C35.502 26.1876 34.5236 25.6265 34.5236 24.7757C34.5236 24.0225 35.3619 23.2174 37.1141 23.2174C38.2803 23.1867 39.4393 23.4247 40.515 23.9157L40.9355 24.12L41.572 20.1953L41.4626 20.2228ZM53.1034 19.7867H49.5988C48.5082 19.7867 47.6867 20.113 47.2101 21.2901L40.4701 37.8978H45.2391L46.1924 35.1746L52.0128 35.1807C52.1502 35.818 52.5707 37.8978 52.5707 37.8978H56.7762L53.1034 19.7867ZM23.2669 19.6342H27.8116L24.9687 37.7545H20.4296L23.2669 19.6281V19.6342ZM11.7298 29.6214L12.2008 32.1372L16.6418 19.7867H21.4557L14.3036 37.8734H9.50088L5.57575 22.5587C5.51218 22.3062 5.36288 22.0893 5.15801 21.9518C3.74328 21.1569 2.24429 20.5537 0.69458 20.1557L0.75626 19.7745H8.07101C9.06351 19.8172 9.86255 20.1557 10.1289 21.3084L11.727 29.6305V29.6214H11.7298ZM47.4961 31.4694L49.3073 26.4011C49.2848 26.456 49.6801 25.3551 49.91 24.6751L50.2213 26.2395L51.2726 31.4664H47.4933V31.4694H47.4961Z" fill="#E0E0E0"/>
</g>
<defs>
<clipPath id="clip0_128_887">
<rect width="56.0816" height="56.0816" fill="white" transform="translate(0.69458 0.763672)"/>
</clipPath>
</defs>
</svg>
